<?xml version="1.0" encoding="UTF-8"?>
<svg version="1.1" viewBox="0 0 468.73 446.7" xmlns="http://www.w3.org/2000/svg" xmlns:cc="http://creativecommons.org/ns#" xmlns:dc="http://purl.org/dc/elements/1.1/" xmlns:rdf="http://www.w3.org/1999/02/22-rdf-syntax-ns#" xmlns:xlink="http://www.w3.org/1999/xlink">
<metadata>
<rdf:RDF>
<cc:Work rdf:about="">
<dc:format>image/svg+xml</dc:format>
<dc:type rdf:resource="http://purl.org/dc/dcmitype/StillImage"/>
<dc:title/>
</cc:Work>
</rdf:RDF>
</metadata>
<g transform="translate(-290.91 -428.67)">
<path d="m526.18 486.76c-71.797 0-130 37.608-130 84 0.063 28.91 23.129 55.767 61.061 71.098-0.62528 1.6894-0.98211 3.0637-1.5234 4.2754-32.299 13.575-73.757-10.997-73.817 12.517 0.0574 20.159-6.8752 69.361 18.002 83.062l54.04-22.799-21.783 138.93c25.452 16.099 52.549 26.069 89.314 0l14.488-60.761 13.585 18.533c36.765 26.069 46.632 28.319 72.085 12.219l-20.354-88.647-2.5234-22.974 47.82 29.033c27.748 2.009 38.054-70.542 38.094-90.713-0.0322-23.534-55.705 5.1321-88.032-8.4533l-0.48047-4.3105-0.75195 0.0527c37.806-15.368 60.756-42.2 60.777-71.061 0-46.392-58.203-84-130-84z" fill="#1a1a1a" stroke="#fff" stroke-linejoin="round" stroke-width="3"/>
<path transform="translate(0 -109.55)" d="m642.32 680.31c0 29.348-51.997 30.179-116.14 30.179-64.142 0-116.14-0.83092-116.14-30.179s51.997-19.629 116.14-19.629c64.142 0 116.14-9.7183 116.14 19.629z" fill="#e9ddaf" stroke="#fff" stroke-width="3"/>
<path d="m452.45 728.74-3.2219 19.918 152-9.5906-2.3883-20z" color="#000000" fill="#662800" fill-rule="evenodd" stroke="#fff" stroke-width="3" style="block-progression:tb;text-indent:0;text-transform:none"/>
<g id="a" transform="translate(-.5719)">
<path transform="matrix(.47038 0 0 .47038 123.57 317.37)" d="m802 533.36c0 24.301-17.685 44-39.5 44s-39.5-19.699-39.5-44 17.685-44 39.5-44 39.5 19.699 39.5 44z" stroke="#000"/>
<path transform="matrix(.47038 0 0 .47038 123.57 317.37)" d="m796 516.36c0 12.15-9.6259 22-21.5 22s-21.5-9.8497-21.5-22c0-12.15 9.6259-22 21.5-22s21.5 9.8497 21.5 22z" fill="#fff" stroke="#000"/>
<path d="m456.13 545.68c31.159-0.4489 39.669 13.014 59.268 18.345" fill="none" stroke="#000" stroke-linecap="round" stroke-linejoin="round" stroke-width="8.1375"/>
<path d="m451.43 592.72c28.807-5.1956 34.494-11.603 58.327-1.4111" fill="none" stroke="#000" stroke-linecap="round" stroke-linejoin="round" stroke-width="5.033"/>
<path transform="matrix(.18175 0 0 .1819 331.6 463.57)" d="m796 516.36c0 12.15-9.6259 22-21.5 22s-21.5-9.8497-21.5-22c0-12.15 9.6259-22 21.5-22s21.5 9.8497 21.5 22z" fill="#fff" stroke="#000" stroke-width="2.5869"/>
<path transform="matrix(.067382 0 0 .080219 422.39 523.14)" d="m796 516.36c0 12.15-9.6259 22-21.5 22s-21.5-9.8497-21.5-22c0-12.15 9.6259-22 21.5-22s21.5 9.8497 21.5 22z" fill="#fff" stroke="#000" stroke-width="6.3979"/>
<path d="m479.33 592.72c15.026-2.9806 17.992-6.6562 30.423-0.80954" fill="none" stroke="#000" stroke-linecap="round" stroke-linejoin="round" stroke-width="5.033"/>
<path d="m478.8 540.16c19.24-0.58395 24.494 16.929 36.596 23.864" fill="none" stroke="#000" stroke-linecap="round" stroke-linejoin="round" stroke-width="8.1375"/>
</g>
<use transform="matrix(-1 0 0 1 1053.2 0)" width="293.28329" height="390.10675" xlink:href="#a"/>
<g transform="translate(180.47 3.1524)" fill="#803600" stroke="#fff" stroke-linejoin="round" stroke-width="3">
<path d="m339.65 735.18 9.7519-10.309c3.0187 6.221 28.613 48.29 38.61 65.954 1.3799 2.292 1.7847 5.1501 1.0954 7.7351s-2.4633 4.8622-4.8012 6.1629c-2.3378 1.3007-5.2082 1.6074-7.7681 0.83004s-4.775-2.6283-5.9949-5.0093c-12.628-22.717-17.073-41.047-30.893-65.364z" color="#000000" style="block-progression:tb;text-indent:0;text-transform:none"/>
<path d="m364.09 732.19c4.2594-7.8792-2.3801-16.739-10.49-18.872-29.86-7.4571-37.808 24.86-21.651 36.492l7.9643-14.49c-8.3145-6.8287-0.69244-16.171 6.5835-11.398-3.0187 6.221-27.754 49.042-37.751 66.705-1.3799 2.292-1.7847 5.1501-1.0954 7.7351s2.4633 4.8622 4.8012 6.1629c2.3378 1.3007 5.2082 1.6074 7.7681 0.83004s4.775-2.6283 5.9949-5.0093l25.219-45.375 11.713-21.083z" color="#000000" style="block-progression:tb;text-indent:0;text-transform:none"/>
<path d="m339.58 735.25c-6.2973-7.9649-1.1816-15.247 7.4803-11.61 3.3878 4.6888 7.9611 8.7392 16.572 10.615 6.9355 4.2897-4.9194 21.977-10.189 17.391-4.7276-5.3161-10.929-8.5689-13.863-16.396z" color="#000000" style="block-progression:tb;text-indent:0;text-transform:none"/>
</g>
<g transform="matrix(1.1487 -.4042 .4042 1.1487 -240.38 -29.553)">
<g transform="matrix(-.87181 .010111 -.010111 -.87181 411.84 1285.1)">
<path d="m124.01 615.04c-5.4473 0-9.8327 1.07-9.8327 8.9326v44.612c0 5.6431 2.2646 10.483 5.5539 12.773-6.0615 1.2004-13.398-3.1354-25.547 4.7308 8.2186 7.3014 20.51 4.7308 27.645 4.7308-2.8751 3.422-4.7026 8.6057-4.7026 14.429v163.69c0 10.352 2.4269 17.73 12.946 29.684 0 0 12.946-19.332 12.946-29.684v-163.69c0-5.8232-1.8274-11.007-4.7025-14.429 6.378-1.1501 16.935 2.0212 27.645-4.7308-10.157-8.5639-18.586-4.7308-25.547-4.7308 3.2893-2.2905 5.5539-7.13 5.5539-12.773v-44.612c0-7.8626-4.3854-8.9326-9.8327-8.9326z" fill="#803300" stroke="#fff" stroke-linecap="round" stroke-linejoin="round" stroke-width="1.9402"/>
<path transform="matrix(.69718 .7169 -.7169 .69718 0 0)" d="m596.06 398.28h10.619v10.225h-10.619z" fill="#fff"/>
<path transform="matrix(.69718 .7169 -.7169 .69718 0 0)" d="m612.14 413.92h10.619v10.225h-10.619z" fill="#fff"/>
<path transform="matrix(.69718 .7169 -.7169 .69718 0 0)" d="m628.22 429.56h10.619v10.225h-10.619z" fill="#fff"/>
<path transform="matrix(.69718 .7169 -.7169 .69718 0 0)" d="m644.3 445.19h10.619v10.225h-10.619z" fill="#fff"/>
<path transform="matrix(.69718 .7169 -.7169 .69718 0 0)" d="m660.38 460.83h10.619v10.225h-10.619z" fill="#fff"/>
<path transform="matrix(.69718 .7169 -.7169 .69718 0 0)" d="m676.46 476.47h10.619v10.225h-10.619z" fill="#fff"/>
<path transform="matrix(.69718 .7169 -.7169 .69718 0 0)" d="m692.54 492.1h10.619v10.225h-10.619z" fill="#fff"/>
<path transform="matrix(.69718 .7169 -.7169 .69718 0 0)" d="m708.62 507.74h10.619v10.225h-10.619z" fill="#fff"/>
</g>
<path transform="matrix(.26048 0 0 .30592 318.34 638.98)" d="m-21.279 199.78c0 15.451-14.467 27.977-32.312 27.977-17.845 0-32.312-12.526-32.312-27.977 0-15.451 14.467-27.977 32.312-27.977 17.845 0 32.312 12.526 32.312 27.977z" fill="#1a1a1a" stroke="#fff" stroke-linecap="round" stroke-width="8.7272"/>
<path transform="matrix(.75502 0 0 .88614 328.09 538.53)" d="m-21.279 199.78c0 15.451-14.467 27.977-32.312 27.977-17.845 0-32.312-12.526-32.312-27.977 0-15.451 14.467-27.977 32.312-27.977 17.845 0 32.312 12.526 32.312 27.977z" fill="#1a1a1a" stroke="#fff" stroke-width="3.0119"/>
</g>
<rect transform="matrix(-.10027 -.99496 .99496 -.10027 0 0)" x="-884.13" y="453.14" width="100.74" height="83.063" ry="41.532" fill="#1a1a1a" stroke="#fff" stroke-linecap="round" stroke-linejoin="round" stroke-width="3"/>
<rect transform="matrix(.98788 -.15521 .15521 .98788 0 0)" x="397.27" y="865.01" width="100.74" height="70.019" ry="35.01" fill="#1a1a1a" stroke="#fff" stroke-linecap="round" stroke-linejoin="round" stroke-width="3"/>
<g transform="matrix(-1.1487 -.4042 -.4042 1.1487 1290.9 -29.553)">
<g transform="matrix(-.87181 .010111 -.010111 -.87181 411.84 1285.1)">
<path d="m124.01 615.04c-5.4473 0-9.8327 1.07-9.8327 8.9326v44.612c0 5.6431 2.2646 10.483 5.5539 12.773-6.0615 1.2004-13.398-3.1354-25.547 4.7308 8.2186 7.3014 20.51 4.7308 27.645 4.7308-2.8751 3.422-4.7026 8.6057-4.7026 14.429v163.69c0 10.352 2.4269 17.73 12.946 29.684 0 0 12.946-19.332 12.946-29.684v-163.69c0-5.8232-1.8274-11.007-4.7025-14.429 6.378-1.1501 16.935 2.0212 27.645-4.7308-10.157-8.5639-18.586-4.7308-25.547-4.7308 3.2893-2.2905 5.5539-7.13 5.5539-12.773v-44.612c0-7.8626-4.3854-8.9326-9.8327-8.9326z" fill="#803300" stroke="#fff" stroke-linecap="round" stroke-linejoin="round" stroke-width="1.9402"/>
<path transform="matrix(.69718 .7169 -.7169 .69718 0 0)" d="m596.06 398.28h10.619v10.225h-10.619z" fill="#fff"/>
<path transform="matrix(.69718 .7169 -.7169 .69718 0 0)" d="m612.14 413.92h10.619v10.225h-10.619z" fill="#fff"/>
<path transform="matrix(.69718 .7169 -.7169 .69718 0 0)" d="m628.22 429.56h10.619v10.225h-10.619z" fill="#fff"/>
<path transform="matrix(.69718 .7169 -.7169 .69718 0 0)" d="m644.3 445.19h10.619v10.225h-10.619z" fill="#fff"/>
<path transform="matrix(.69718 .7169 -.7169 .69718 0 0)" d="m660.38 460.83h10.619v10.225h-10.619z" fill="#fff"/>
<path transform="matrix(.69718 .7169 -.7169 .69718 0 0)" d="m676.46 476.47h10.619v10.225h-10.619z" fill="#fff"/>
<path transform="matrix(.69718 .7169 -.7169 .69718 0 0)" d="m692.54 492.1h10.619v10.225h-10.619z" fill="#fff"/>
<path transform="matrix(.69718 .7169 -.7169 .69718 0 0)" d="m708.62 507.74h10.619v10.225h-10.619z" fill="#fff"/>
</g>
<path transform="matrix(.26048 0 0 .30592 318.34 638.98)" d="m-21.279 199.78c0 15.451-14.467 27.977-32.312 27.977-17.845 0-32.312-12.526-32.312-27.977 0-15.451 14.467-27.977 32.312-27.977 17.845 0 32.312 12.526 32.312 27.977z" fill="#1a1a1a" stroke="#fff" stroke-linecap="round" stroke-width="8.7272"/>
<path transform="matrix(.75502 0 0 .88614 328.09 538.53)" d="m-21.279 199.78c0 15.451-14.467 27.977-32.312 27.977-17.845 0-32.312-12.526-32.312-27.977 0-15.451 14.467-27.977 32.312-27.977 17.845 0 32.312 12.526 32.312 27.977z" fill="#1a1a1a" stroke="#fff" stroke-width="3.0119"/>
</g>
<g transform="matrix(.58081 -.50971 .47175 .53756 -162.05 44.36)">
<path d="m132.16 985.33-3.0436-61.831h33.889l-3.0436 61.831zm29.879 37.764h-31.956v-31.816h31.956z"/>
</g>
<g transform="matrix(.68271 -.36199 .33504 .63188 -8.8809 -95.86)">
<path d="m132.16 985.33-3.0436-61.831h33.889l-3.0436 61.831zm29.879 37.764h-31.956v-31.816h31.956z"/>
</g>
</g>
</svg>
